<?xml version="1.0" encoding="utf-8"?>
<!-- Generator: Adobe Illustrator 15.0.0, SVG Export Plug-In . SVG Version: 6.00 Build 0)  -->
<!DOCTYPE svg PUBLIC "-//W3C//DTD SVG 1.0//EN" "http://www.w3.org/TR/2001/REC-SVG-20010904/DTD/svg10.dtd">
<svg version="1.0" id="Camada_1" xmlns="http://www.w3.org/2000/svg" xmlns:xlink="http://www.w3.org/1999/xlink" x="0px" y="0px"
	 width="20px" height="20px" viewBox="0 0 20 20" enable-background="new 0 0 20 20" xml:space="preserve">
<path fill="#138EC9" d="M20,3.334C20,1.582,18.418,0,16.666,0H3.333C1.582,0,0,1.582,0,3.334v13.333C0,18.418,1.582,20,3.333,20H10
	v-7.556H7.555V9.111H10V7.813c0-2.24,1.682-4.259,3.75-4.259h2.693v3.334H13.75c-0.295,0-0.641,0.358-0.641,0.895v1.328h3.334v3.333
	h-3.334V20h3.557C18.418,20,20,18.418,20,16.667V3.334z"/>
</svg>
