<?xml version="1.0" encoding="utf-8"?>
<!-- Generator: Adobe Illustrator 15.0.0, SVG Export Plug-In . SVG Version: 6.00 Build 0)  -->
<!DOCTYPE svg PUBLIC "-//W3C//DTD SVG 1.0//EN" "http://www.w3.org/TR/2001/REC-SVG-20010904/DTD/svg10.dtd">
<svg version="1.0" id="Camada_1" xmlns="http://www.w3.org/2000/svg" xmlns:xlink="http://www.w3.org/1999/xlink" x="0px" y="0px"
	 width="20px" height="20px" viewBox="0 0 20 20" enable-background="new 0 0 20 20" xml:space="preserve">
<path fill="#138EC9" d="M18.901,1.099C18.168,0.366,17.283,0,16.251,0H3.75c-1.032,0-1.917,0.366-2.65,1.099
	C0.367,1.833,0,2.718,0,3.75v12.499c0,1.033,0.367,1.917,1.101,2.65C1.834,19.634,2.719,20,3.75,20h12.5
	c1.032,0,1.917-0.366,2.65-1.101C19.635,18.166,20,17.282,20,16.249V3.75C20,2.718,19.635,1.833,18.901,1.099 M8.283,11.953
	c-0.54,0.538-1.189,0.806-1.954,0.806c-0.764,0-1.416-0.268-1.953-0.806C3.838,11.414,3.569,10.764,3.569,10
	c0-0.765,0.268-1.416,0.807-1.954C4.913,7.508,5.565,7.24,6.329,7.24c0.765,0,1.415,0.268,1.954,0.806
	C8.821,8.584,9.089,9.235,9.089,10C9.089,10.764,8.821,11.414,8.283,11.953 M15.626,11.953c-0.538,0.538-1.189,0.806-1.954,0.806
	c-0.763,0-1.413-0.268-1.954-0.806c-0.536-0.539-0.807-1.189-0.807-1.953c0-0.765,0.271-1.416,0.807-1.954
	c0.541-0.538,1.191-0.806,1.954-0.806c0.765,0,1.415,0.268,1.954,0.806c0.537,0.539,0.806,1.189,0.806,1.954
	C16.432,10.764,16.163,11.414,15.626,11.953"/>
</svg>
