<?xml version="1.0" encoding="utf-8"?>
<!-- Generator: Adobe Illustrator 15.0.0, SVG Export Plug-In . SVG Version: 6.00 Build 0)  -->
<!DOCTYPE svg PUBLIC "-//W3C//DTD SVG 1.0//EN" "http://www.w3.org/TR/2001/REC-SVG-20010904/DTD/svg10.dtd">
<svg version="1.0" id="Camada_1" xmlns="http://www.w3.org/2000/svg" xmlns:xlink="http://www.w3.org/1999/xlink" x="0px" y="0px"
	 width="20px" height="20px" viewBox="0 0 20 20" enable-background="new 0 0 20 20" xml:space="preserve">
<g>
	<path fill="#138EC9" d="M14.04-0.001H5.959C2.671-0.001,0,2.67,0,5.958v8.082c0,3.29,2.671,5.961,5.959,5.961h8.081
		c3.291,0,5.96-2.671,5.96-5.961V5.958C20,2.67,17.331-0.001,14.04-0.001 M17.99,14.04c0,2.183-1.768,3.949-3.95,3.949H5.959
		c-2.181,0-3.946-1.767-3.946-3.949V5.958c0-2.18,1.765-3.946,3.946-3.946h8.081c2.183,0,3.95,1.766,3.95,3.946V14.04z"/>
	<path fill="#138EC9" d="M10,4.829c-2.853,0-5.17,2.318-5.17,5.17c0,2.854,2.317,5.172,5.17,5.172c2.854,0,5.171-2.318,5.171-5.172
		C15.171,7.147,12.854,4.829,10,4.829 M10,13.158c-1.743,0-3.159-1.416-3.159-3.159C6.841,8.255,8.257,6.84,10,6.84
		c1.745,0,3.159,1.415,3.159,3.159C13.159,11.742,11.745,13.158,10,13.158"/>
	<path fill="#138EC9" d="M15.184,3.626c0.683,0,1.238,0.556,1.238,1.242c0,0.684-0.556,1.239-1.238,1.239
		c-0.686,0-1.242-0.556-1.242-1.239C13.941,4.182,14.498,3.626,15.184,3.626"/>
</g>
</svg>
