<?xml version="1.0" encoding="utf-8"?>
<!-- Generator: Adobe Illustrator 15.0.0, SVG Export Plug-In . SVG Version: 6.00 Build 0)  -->
<!DOCTYPE svg PUBLIC "-//W3C//DTD SVG 1.1//EN" "http://www.w3.org/Graphics/SVG/1.1/DTD/svg11.dtd">
<svg version="1.1" id="Camada_1" xmlns="http://www.w3.org/2000/svg" xmlns:xlink="http://www.w3.org/1999/xlink" x="0px" y="0px"
	 width="20px" height="20px" viewBox="0 0 20 20" enable-background="new 0 0 20 20" xml:space="preserve">
<g>
	<path fill="#138EC9" d="M5.562,16.799l0.3,0.178c1.26,0.748,2.704,1.143,4.177,1.143h0.003c4.523,0,8.205-3.68,8.206-8.202
		c0.002-2.193-0.852-4.253-2.401-5.804c-1.535-1.545-3.624-2.412-5.801-2.406c-4.526,0-8.208,3.68-8.209,8.203
		c-0.002,1.544,0.433,3.058,1.254,4.365l0.195,0.313l-0.829,3.027L5.562,16.799z M0.085,19.959l1.4-5.115
		c-0.863-1.496-1.318-3.193-1.317-4.935c0.001-5.441,4.431-9.869,9.873-9.869c2.641,0.001,5.12,1.028,6.984,2.895
		c1.864,1.866,2.89,4.346,2.89,6.982c-0.003,5.442-4.432,9.87-9.874,9.87h-0.004c-1.652,0-3.275-0.414-4.718-1.201L0.085,19.959z"/>
	<path fill="#138EC9" d="M7.472,5.683c-0.185-0.411-0.38-0.419-0.555-0.427L6.444,5.25c-0.165,0-0.432,0.062-0.658,0.308
		C5.561,5.806,4.923,6.402,4.923,7.616s0.884,2.387,1.007,2.552c0.124,0.165,1.707,2.734,4.214,3.725
		c2.083,0.82,2.508,0.656,2.96,0.617c0.453-0.043,1.46-0.598,1.665-1.174s0.205-1.07,0.145-1.174
		c-0.063-0.104-0.227-0.164-0.474-0.287c-0.246-0.123-1.459-0.721-1.686-0.803c-0.226-0.082-0.391-0.123-0.555,0.123
		c-0.165,0.248-0.638,0.803-0.781,0.967c-0.144,0.166-0.287,0.188-0.535,0.063C10.637,12.102,9.843,11.842,8.9,11
		c-0.733-0.654-1.229-1.461-1.373-1.708C7.384,9.045,7.513,8.912,7.637,8.79c0.11-0.111,0.246-0.289,0.37-0.432
		C8.13,8.213,8.171,8.11,8.253,7.946c0.082-0.164,0.041-0.309-0.021-0.432C8.171,7.391,7.691,6.17,7.472,5.683"/>
</g>
</svg>
